<?xml version="1.0" encoding="UTF-8"?>
<svg version="1.1" xmlns="http://www.w3.org/2000/svg" width="186" height="116">
<path d="M0 0 C61.38 0 122.76 0 186 0 C186 38.28 186 76.56 186 116 C124.62 116 63.24 116 0 116 C0 77.72 0 39.44 0 0 Z " fill="#FEFEFE" transform="translate(0,0)"/>
<path d="M0 0 C10.92415239 6.46367941 17.8705475 15.58899448 21.1953125 27.890625 C21.5253125 26.570625 21.8553125 25.250625 22.1953125 23.890625 C26.1553125 23.890625 30.1153125 23.890625 34.1953125 23.890625 C31.77242844 33.44755659 28.54965233 42.6309102 25.1953125 51.890625 C22.5553125 51.890625 19.9153125 51.890625 17.1953125 51.890625 C16.82019531 53.2209375 16.82019531 53.2209375 16.4375 54.578125 C13.03957995 63.63924515 5.50370334 68.86141012 -3.0078125 72.734375 C-4.39226562 73.30671875 -4.39226562 73.30671875 -5.8046875 73.890625 C-6.58972656 74.26445313 -7.37476563 74.63828125 -8.18359375 75.0234375 C-16.31267064 77.71293835 -26.92096793 76.81909614 -34.5703125 73.1484375 C-35.30765625 72.73335938 -36.045 72.31828125 -36.8046875 71.890625 C-37.58328125 71.45492187 -38.361875 71.01921875 -39.1640625 70.5703125 C-49.26915213 64.36483799 -55.87955141 55.49858345 -58.8046875 43.890625 C-60.22376291 34.79633527 -59.36395625 25.98969869 -54.8046875 17.890625 C-54.36898437 17.11203125 -53.93328125 16.3334375 -53.484375 15.53125 C-41.96587779 -3.2256471 -19.75062829 -9.62786892 0 0 Z " fill="#EBCB68" transform="translate(79.8046875,21.109375)"/>
<path d="M0 0 C4.29 0 8.58 0 13 0 C16.11643445 7.27168038 19.03792746 14.59194086 21.8125 22 C22.12646729 22.8247583 22.44043457 23.6495166 22.76391602 24.49926758 C23.05451904 25.28325928 23.34512207 26.06725098 23.64453125 26.875 C23.90596924 27.57367188 24.16740723 28.27234375 24.43676758 28.9921875 C25 31 25 31 25 35 C21.04 35 17.08 35 13 35 C12.505 32.525 12.505 32.525 12 30 C8.37 30 4.74 30 1 30 C0.505 32.475 0.505 32.475 0 35 C-3.96 35 -7.92 35 -12 35 C-10.56357814 27.5196173 -8.16955123 20.66238036 -5.4375 13.5625 C-5.02564453 12.47517578 -4.61378906 11.38785156 -4.18945312 10.26757812 C-1.19210633 2.38421266 -1.19210633 2.38421266 0 0 Z " fill="#FEFDFB" transform="translate(57,38)"/>
<path d="M0 0 C3.30774657 2.30773016 4.88228692 4.26457385 6.6875 7.875 C6.6875 10.185 6.6875 12.495 6.6875 14.875 C1.0775 14.875 -4.5325 14.875 -10.3125 14.875 C-9.9825 15.535 -9.6525 16.195 -9.3125 16.875 C-4.3625 16.875 0.5875 16.875 5.6875 16.875 C4.6875 21.875 4.6875 21.875 2.3125 24.125 C-2.41411234 27.27607489 -6.79893405 27.40010152 -12.3125 26.875 C-16.90135076 25.0394597 -19.14946971 22.28117281 -21.3125 17.875 C-22.12453318 12.83055147 -21.88678068 9.04483102 -19.625 4.4375 C-13.94077379 -1.86123715 -7.90410936 -2.6844145 0 0 Z " fill="#080808" transform="translate(136.3125,46.125)"/>
<path d="M0 0 C3.96 0 7.92 0 12 0 C15 10.625 15 10.625 15 14 C15.66 14 16.32 14 17 14 C17.12375 12.989375 17.2475 11.97875 17.375 10.9375 C17.98085335 7.12062388 18.87193912 3.68499888 20 0 C23.96 0 27.92 0 32 0 C29.57711594 9.55693159 26.35433983 18.7402852 23 28 C18.38 28 13.76 28 9 28 C7.49627347 23.70960566 5.99685773 19.41779019 4.5 15.125 C4.07074219 13.90167969 3.64148438 12.67835937 3.19921875 11.41796875 C2.79316406 10.25136719 2.38710937 9.08476563 1.96875 7.8828125 C1.59169922 6.80402832 1.21464844 5.72524414 0.82617188 4.61376953 C0 2 0 2 0 0 Z " fill="#060604" transform="translate(82,45)"/>
<path d="M0 0 C3.64588169 -0.02682987 7.29156846 -0.04675569 10.9375 -0.0625 C12.49887695 -0.07506836 12.49887695 -0.07506836 14.09179688 -0.08789062 C15.57583008 -0.09272461 15.57583008 -0.09272461 17.08984375 -0.09765625 C18.46450806 -0.10551147 18.46450806 -0.10551147 19.86694336 -0.11352539 C22 0 22 0 23 1 C23.65144707 4.12963231 23.71613174 6.88006943 23 10 C20.70863629 12.87594853 18.11628132 15.05388857 15 17 C14.34 17 13.68 17 13 17 C13 17.66 13 18.32 13 19 C16.3 19 19.6 19 23 19 C23 21.97 23 24.94 23 28 C15.41 28 7.82 28 0 28 C0 18 0 18 1.75 15.4921875 C2.86375 14.69167969 2.86375 14.69167969 4 13.875 C5.11375 13.03582031 5.11375 13.03582031 6.25 12.1796875 C7.11625 11.59574219 7.11625 11.59574219 8 11 C5.36 10.67 2.72 10.34 0 10 C0 6.7 0 3.4 0 0 Z " fill="#070707" transform="translate(145,45)"/>
<path d="M0 0 C0.33 0 0.66 0 1 0 C1 3.3 1 6.6 1 10 C3.97 10 6.94 10 10 10 C6.42039216 14.73019608 6.42039216 14.73019608 3.90625 16.34375 C1.77905887 17.87048361 1.77905887 17.87048361 1.390625 20.48046875 C1.32101563 21.82044922 1.32101563 21.82044922 1.25 23.1875 C1.19328125 24.08855469 1.1365625 24.98960938 1.078125 25.91796875 C1.05234375 26.60503906 1.0265625 27.29210937 1 28 C0.67 28 0.34 28 0 28 C-0.22786458 25.98177083 -0.45572917 23.96354167 -0.68359375 21.9453125 C-0.91292961 19.92595684 -0.91292961 19.92595684 -2 18 C-6.95 18.33 -11.9 18.66 -17 19 C-17.33 18.01 -17.66 17.02 -18 16 C-12.39 16 -6.78 16 -1 16 C-0.67 10.72 -0.34 5.44 0 0 Z " fill="#E9E9E9" transform="translate(144,45)"/>
<path d="M0 0 C5.61 0 11.22 0 17 0 C16.67 0.66 16.34 1.32 16 2 C13.45058627 2.31241371 10.99638487 2.51303421 8.4375 2.625 C7.37112305 2.68300781 7.37112305 2.68300781 6.28320312 2.7421875 C4.52257575 2.83671783 2.76132272 2.91945817 1 3 C0.67 2.01 0.34 1.02 0 0 Z " fill="#C1C1C1" transform="translate(126,61)"/>
<path d="M0 0 C1.74627478 2.61941217 2.38722388 4.03824877 3 7 C1.35 7 -0.3 7 -2 7 C-1.34 4.69 -0.68 2.38 0 0 Z " fill="#EDCF71" transform="translate(63,52)"/>
</svg>
